#!OML:ASF F:\VICON\USERDATA\INSTALL\rory3\rory3.ASF
:FULLY-SPECIFIED
:DEGREES
36
root 1.004286120578466 17.960355208944296 16.589294998388382 -4.350223911530719 -1.3982230849950672 0.14539207962677336
lfemur -5.975928599078347 -3.078361891855644 -25.245719704471536
ltibia 30.877240035679804
lfoot -10.063299170539437 0.07151430886566246
ltoes -8.834006780591855
rfemur -19.759470816365862 -6.003641264429649 23.889551391467283
rtibia 66.53973737533511
rfoot 1.8356117156780227 -7.44336643349207
rtoes 6.189768561441116
lowerback 11.537097392015651 1.0479897382749024 -0.7461628318226947
upperback 0.3801309801822763 0.9010365461471763 0.622971764681691
thorax -6.128418996154163 0.908544796172501 0.8252995264320246
lowerneck -16.929224263688525 -3.2685154987241933 -2.855688004231923
upperneck 21.794624186422663 -4.521818048113314 1.151835323695869
head 9.727539970816451 -2.1308952787658573 0.13436489878007762
lclavicle 3.007651875586631e-16 5.650211328836347e-17
lhumerus -32.562761824381944 6.922867107493538 79.68034714154427
lradius 23.7184819870424
lwrist 7.304873389361927
lhand -29.109837741609375 19.42735183909291
lfingers 7.125020000000001
lthumb -2.4109025962163777 49.597085972606976
rclavicle 2.993986031226399e-16 5.552079595302513e-17
rhumerus -28.19758517992302 -20.936316672093316 -78.87577054577685
rradius 29.492219403832497
rwrist 2.928360034290561
rhand -17.757572957981495 23.35706317789624
rfingers 7.125020000000001
rthumb 8.395372675633947 -6.706946731214945
37
root 0.9824742687297576 17.937443549159028 17.421692302981185 -4.140732726772416 -0.5827863383541698 0.3437342888867443
lfemur -3.1741585139468427 -3.1491570476048993 -25.690019678041374
ltibia 30.903567034249004
lfoot -10.481840779866104 0.8331486312281275
ltoes -8.912985403887575
rfemur -23.351157839936217 -6.139506935597782 23.8689257373726
rtibia 61.343019096955175
rfoot -1.2749991782174028 -7.625151253993306
rtoes 4.464744004857163
lowerback 11.774271735279047 0.5476203838375654 -1.0838920700845598
upperback 0.41696272775553794 0.18730608277628924 0.7782509752801783
thorax -6.151787944701905 0.6523961643149112 1.3496756366069107
lowerneck -16.99719266732022 -3.237517554785154 -2.8616248300072096
upperneck 21.669685837475832 -4.526491089620827 1.1926224512310246
head 9.693465188189391 -2.103673905833631 0.1346631488472721
lclavicle 3.007653680338836e-16 5.650224288406054e-17
lhumerus -31.10101821468665 5.6251021908810115 80.20772246344505
lradius 24.96360105489802
lwrist 7.582335836481732
lhand -29.233714679365676 19.65112103362283
lfingers 7.125020000000001
lthumb -2.486490287910558 49.96289538537902
rclavicle 2.993987118436277e-16 5.552087402342257e-17
rhumerus -29.693553331332794 -21.37160819048817 -78.43968921625913
rradius 30.223573412909158
rwrist 2.5033545559159025
rhand -17.906955788898845 23.66486306068221
rfingers 7.125020000000001
rthumb 8.143207129898306 -6.524944960960296
38
root 0.9517230906801813 17.905616457070288 18.083304964312013 -3.7701250858577025 0.06178011199399397 0.46167604056145484
lfemur -1.1092618615835335 -2.9506822382005593 -26.040913120893393
ltibia 31.253015248020656
lfoot -11.379885264535357 1.715965104898598
ltoes -8.252235349258285
rfemur -26.179622317153946 -5.572374157169085 23.67996777427578
rtibia 54.28068260019823
rfoot -3.8899722217061403 -7.747558921454381
rtoes 3.490373650219487
lowerback 11.91832840625875 0.09141942542557614 -1.6087162587856045
upperback 0.4660542139717477 -0.3788519238219 1.00195063021414
thorax -6.130823014904739 0.4047376344054592 1.874863678416696
lowerneck -17.01707716473745 -3.1583667865842426 -2.8031472576215393
upperneck 21.651468689467887 -4.567570942787298 1.2794689523805154
head 9.68831327902454 -2.0880645632969532 0.1318322028139875
lclavicle 3.0076502995461196e-16 5.650200011600264e-17
lhumerus -29.63899296800275 3.9525034424068437 80.9688529356666
lradius 26.02560430053088
lwrist 7.926116837332225
lhand -29.232231709384642 19.599395045909816
lfingers 7.125020000000001
lthumb -2.386201071333739 50.28747918296948
rclavicle 2.9939824317284857e-16 5.552053748017802e-17
rhumerus -30.836718596468703 -20.935870170265307 -77.97638549026227
rradius 30.691202656091804
rwrist 2.1254346643565656
rhand -17.939383767402084 23.82688426968294
rfingers 7.125020000000001
rthumb 8.055083456409422 -6.493147382471033
39
root 0.9234845117717466 17.879613980150623 18.507008009742282 -3.2214775335285015 0.6874745748323746 0.730584046902949
lfemur 1.0543561940565622 -2.8726880637053647 -26.54934203093436
ltibia 30.5194828900063
lfoot -11.18273548418693 2.615589215708167
ltoes -7.737046648435993
rfemur -27.87206420567302 -4.534701457776201 23.193935919836626
rtibia 46.16255430746552
rfoot -5.723188387618668 -8.32864336255819
rtoes 2.6549804628282017
lowerback 11.863091070295708 -0.2783229412690865 -2.1920079095350866
upperback 0.4457595732563942 -0.8108146625068586 1.155002537746594
thorax -6.049503392011063 0.21176938500957093 2.415643822487035
lowerneck -16.99866878684537 -3.1034637964617287 -2.752355803096633
upperneck 21.59236563725478 -4.634878778148542 1.3505776563672074
head 9.649627712234787 -2.07301365547938 0.14519175099940912
lclavicle 3.007643258073029e-16 5.6501494481705e-17
lhumerus -28.25905457975884 2.769735271294956 81.18991121405159
lradius 26.95585770660716
lwrist 8.229250758284643
lhand -29.26181403060268 19.913987898433717
lfingers 7.125020000000001
lthumb -2.3091139322912904 50.79567424521046
rclavicle 2.9939810039316644e-16 5.552043495290383e-17
rhumerus -31.617043973677145 -20.63072725591189 -77.77462523509313
rradius 30.594715311958183
rwrist 1.7300597522619099
rhand -17.97009835632499 23.700841388707687
rfingers 7.125020000000001
rthumb 8.047291899447517 -6.562368857139707
